<svg width="28" height="28" viewBox="0 0 28 28" fill="none" xmlns="http://www.w3.org/2000/svg">
<path d="M3.5 6.12504C3.26794 6.12504 3.04538 6.21722 2.88128 6.38132C2.71719 6.54541 2.625 6.76797 2.625 7.00004C2.625 7.2321 2.71719 7.45466 2.88128 7.61876C3.04538 7.78285 3.26794 7.87504 3.5 7.87504H5.4425L7.7385 17.0625C7.93362 17.8413 8.631 18.375 9.43338 18.375H20.3446C21.1348 18.375 21.8059 17.85 22.0133 17.0888L24.2812 8.75004H22.449L20.3438 16.625H9.4325L7.13737 7.43754C7.04257 7.06061 6.82402 6.72641 6.51672 6.48844C6.20942 6.25047 5.83116 6.1225 5.4425 6.12504H3.5ZM19.25 18.375C17.8106 18.375 16.625 19.5607 16.625 21C16.625 22.4394 17.8106 23.625 19.25 23.625C20.6894 23.625 21.875 22.4394 21.875 21C21.875 19.5607 20.6894 18.375 19.25 18.375ZM11.375 18.375C9.93563 18.375 8.75 19.5607 8.75 21C8.75 22.4394 9.93563 23.625 11.375 23.625C12.8144 23.625 14 22.4394 14 21C14 19.5607 12.8144 18.375 11.375 18.375ZM14 6.12504V10.5H11.375L14.875 14L18.375 10.5H15.75V6.12504H14ZM11.375 20.125C11.8685 20.125 12.25 20.5065 12.25 21C12.25 21.4935 11.8685 21.875 11.375 21.875C10.8815 21.875 10.5 21.4935 10.5 21C10.5 20.5065 10.8815 20.125 11.375 20.125ZM19.25 20.125C19.7435 20.125 20.125 20.5065 20.125 21C20.125 21.4935 19.7435 21.875 19.25 21.875C18.7565 21.875 18.375 21.4935 18.375 21C18.375 20.5065 18.7565 20.125 19.25 20.125Z" fill="black"/>
</svg>
